<svg id="_470_artificial_intelligence_outline" data-name="#470_artificial_intelligence_outline" xmlns="http://www.w3.org/2000/svg" viewBox="0 0 400 300" data-imageid="artificial-intelligence-outline-60f9c" imageName="Artificial intelligence" class="illustrations_image" style="width: 166px;"><path d="M290,238.86H110a1,1,0,1,1,0-2H290a1,1,0,0,1,0,2Z" fill="#093f68"/><path d="M193.43,132.3v48.64a15.06,15.06,0,0,1-7.44,13v34.62H134.3V193.94c-4.11-2.42-22.8-45.69-22.8-45.69l6.54-7.2,8.81,2,1-12.61Z" fill="#68e1fd" class="target-color"/><path d="M186,229.56H134.3a1,1,0,0,1-1-1V194.41c-4.81-4.64-19.69-38.75-22.72-45.76a1,1,0,0,1,.17-1.07l6.55-7.21a1,1,0,0,1,1-.3l7.67,1.77.89-11.44a1,1,0,0,1,1-.93l65.6,1.83a1,1,0,0,1,1,1v48.64A16.16,16.16,0,0,1,187,194.5v34.06A1,1,0,0,1,186,229.56Zm-50.69-2H185V193.94a1,1,0,0,1,.49-.86,14.14,14.14,0,0,0,7-12.14V133.27l-63.68-1.77-.9,11.66a1,1,0,0,1-.41.72.94.94,0,0,1-.81.17l-8.24-1.9-5.72,6.3c7.21,16.65,19.38,43,22.13,44.63a1,1,0,0,1,.5.86Z" fill="#093f68"/><path d="M134.9,70.52h0a6,6,0,0,1,6,6V132a0,0,0,0,1,0,0H128.94a0,0,0,0,1,0,0V76.49a6,6,0,0,1,6-6Z" fill="#68e1fd" class="target-color"/><path d="M140.87,133H128.94a1,1,0,0,1-1-1V76.49a7,7,0,1,1,13.93,0V132A1,1,0,0,1,140.87,133Zm-10.93-2h9.93V76.49a5,5,0,1,0-9.93,0Z" fill="#093f68"/><circle cx="134.9" cy="131.97" r="7.23" fill="#68e1fd" class="target-color"/><path d="M134.9,140.2a8.23,8.23,0,1,1,8.23-8.23A8.24,8.24,0,0,1,134.9,140.2Zm0-14.46a6.23,6.23,0,1,0,6.23,6.23A6.24,6.24,0,0,0,134.9,125.74Z" fill="#093f68"/><path d="M152,62.14h0a6,6,0,0,1,6,6V132a0,0,0,0,1,0,0H146a0,0,0,0,1,0,0V68.11a6,6,0,0,1,6-6Z" fill="#68e1fd" class="target-color"/><path d="M158,133H146a1,1,0,0,1-1-1V68.11a7,7,0,1,1,13.93,0V132A1,1,0,0,1,158,133ZM147,131H157V68.11a5,5,0,1,0-9.93,0Z" fill="#093f68"/><circle cx="152" cy="131.97" r="7.23" fill="#68e1fd" class="target-color"/><path d="M152,140.2a8.23,8.23,0,1,1,8.23-8.23A8.24,8.24,0,0,1,152,140.2Zm0-14.46a6.23,6.23,0,1,0,6.23,6.23A6.24,6.24,0,0,0,152,125.74Z" fill="#093f68"/><path d="M169.1,67.54h0a6,6,0,0,1,6,6V132a0,0,0,0,1,0,0H163.13a0,0,0,0,1,0,0V73.51A6,6,0,0,1,169.1,67.54Z" fill="#68e1fd" class="target-color"/><path d="M175.07,133H163.13a1,1,0,0,1-1-1V73.5a7,7,0,0,1,13.94,0V132A1,1,0,0,1,175.07,133Zm-10.94-2h9.94V73.5a5,5,0,0,0-9.94,0Z" fill="#093f68"/><circle cx="169.1" cy="131.97" r="7.23" fill="#68e1fd" class="target-color"/><path d="M169.1,140.2a8.23,8.23,0,1,1,8.23-8.23A8.24,8.24,0,0,1,169.1,140.2Zm0-14.46a6.23,6.23,0,1,0,6.23,6.23A6.24,6.24,0,0,0,169.1,125.74Z" fill="#093f68"/><path d="M186.2,77.87h0a6,6,0,0,1,6,6V132a0,0,0,0,1,0,0H180.23a0,0,0,0,1,0,0V83.83A6,6,0,0,1,186.2,77.87Z" fill="#68e1fd" class="target-color"/><path d="M192.17,133H180.23a1,1,0,0,1-1-1V83.83a7,7,0,0,1,13.94,0V132A1,1,0,0,1,192.17,133Zm-10.94-2h9.94V83.83a5,5,0,0,0-9.94,0Z" fill="#093f68"/><circle cx="186.2" cy="131.97" r="7.23" fill="#68e1fd" class="target-color"/><path d="M186.2,140.2a8.23,8.23,0,1,1,8.23-8.23A8.24,8.24,0,0,1,186.2,140.2Zm0-14.46a6.23,6.23,0,1,0,6.23,6.23A6.24,6.24,0,0,0,186.2,125.74Z" fill="#093f68"/><path d="M140.87,109.78H129.18a1,1,0,0,1,0-2h11.69a1,1,0,0,1,0,2Z" fill="#093f68"/><path d="M140.87,90.36H129.18a1,1,0,0,1,0-2h11.69a1,1,0,0,1,0,2Z" fill="#093f68"/><path d="M174.94,112.69H163.26a1,1,0,0,1,0-2h11.68a1,1,0,0,1,0,2Z" fill="#093f68"/><path d="M174.94,90.36H163.26a1,1,0,0,1,0-2h11.68a1,1,0,0,1,0,2Z" fill="#093f68"/><path d="M192,117.08H180.36a1,1,0,0,1,0-2H192a1,1,0,0,1,0,2Z" fill="#093f68"/><path d="M192,94.75H180.36a1,1,0,0,1,0-2H192a1,1,0,0,1,0,2Z" fill="#093f68"/><path d="M157.84,109.78H146.16a1,1,0,0,1,0-2h11.68a1,1,0,0,1,0,2Z" fill="#093f68"/><path d="M157.84,82.64H146.16a1,1,0,0,1,0-2h11.68a1,1,0,0,1,0,2Z" fill="#093f68"/><path d="M102.92,112.09h0a6.9,6.9,0,0,1,9.15,3.38l12.42,26.38L112,147.62,99.55,121.24A6.89,6.89,0,0,1,102.92,112.09Z" fill="#68e1fd" class="target-color"/><path d="M112,148.62a1,1,0,0,1-.91-.57L98.64,121.67a7.9,7.9,0,0,1,3.86-10.49h0A7.91,7.91,0,0,1,113,115.05l12.41,26.38a1,1,0,0,1,0,.76,1,1,0,0,1-.52.57l-12.52,5.77A1,1,0,0,1,112,148.62Zm-6.17-36.16a5.9,5.9,0,0,0-2.46.54h0a5.89,5.89,0,0,0-2.88,7.82l12,25.48,10.7-4.93-12-25.48a5.9,5.9,0,0,0-3.31-3.07A6.07,6.07,0,0,0,105.8,112.46Zm-2.88-.37h0Z" fill="#093f68"/><circle cx="118.23" cy="144.74" r="8.35" fill="#68e1fd" class="target-color"/><path d="M118.24,154.09A9.36,9.36,0,1,1,127,148a9.36,9.36,0,0,1-8.76,6.12Zm0-16.71a7.36,7.36,0,1,0,6.68,4.28h0a7.37,7.37,0,0,0-6.68-4.28Z" fill="#093f68"/><path d="M104.34,132.42a1,1,0,0,1-.37-1.93l12.82-5.13a1,1,0,0,1,1.3.56,1,1,0,0,1-.56,1.3l-12.82,5.13A1,1,0,0,1,104.34,132.42Z" fill="#093f68"/><line x1="121.72" y1="152.32" x2="142.13" y2="167.52" fill="#68e1fd" class="target-color"/><path d="M142.13,168.52a1,1,0,0,1-.6-.2l-20.4-15.2a1,1,0,0,1-.21-1.39,1,1,0,0,1,1.4-.21l20.41,15.19a1,1,0,0,1,.2,1.4A1,1,0,0,1,142.13,168.52Z" fill="#093f68"/><path d="M177.79,169.31a1,1,0,0,1-.95-.71l-7.73-25.88-7.6,25.88a1,1,0,0,1-1,.71,1,1,0,0,1-1-.71L152,142.72l-7.72,25.88a1,1,0,0,1-1,.71h0a1,1,0,0,1-1-.72l-8.41-29.11a1,1,0,0,1,1.92-.56l7.47,25.85L151,138.91a1,1,0,0,1,1-.71h0a1,1,0,0,1,1,.72l7.59,25.85,7.59-25.85a1,1,0,0,1,1-.72h0a1,1,0,0,1,1,.71l7.72,25.86,7.46-25.85a1,1,0,1,1,1.92.56l-8.41,29.11a1,1,0,0,1-.95.72Z" fill="#093f68"/><path d="M148,229.56a1,1,0,0,1-1-.93l-4.72-60.24a1,1,0,0,1,.92-1.07,1,1,0,0,1,1.08.92L149,228.48a1,1,0,0,1-.92,1.07Z" fill="#093f68"/><path d="M160.55,229.56a1,1,0,0,1-1-1V168.31a1,1,0,0,1,2,0v60.25A1,1,0,0,1,160.55,229.56Z" fill="#093f68"/><path d="M174,229.56H174a1,1,0,0,1-.93-1.06l3.77-60.24a1,1,0,0,1,2,.13L175,228.62A1,1,0,0,1,174,229.56Z" fill="#093f68"/><rect x="129.31" y="228.56" width="61.26" height="9.3" fill="#68e1fd" class="target-color"/><path d="M190.57,238.86H129.31a1,1,0,0,1-1-1v-9.3a1,1,0,0,1,1-1h61.26a1,1,0,0,1,1,1v9.3A1,1,0,0,1,190.57,238.86Zm-60.26-2h59.26v-7.3H130.31Z" fill="#093f68"/><rect x="142.37" y="184.76" width="36.41" height="29.99" fill="#68e1fd" class="target-color"/><path d="M178.77,215.75h-36.4a1,1,0,0,1-1-1v-30a1,1,0,0,1,1-1h36.4a1,1,0,0,1,1,1v30A1,1,0,0,1,178.77,215.75Zm-35.4-2h34.4v-28h-34.4Z" fill="#093f68"/><rect x="152.33" y="192.99" width="16.48" height="13.57" fill="#093f68"/><path d="M168.81,207.56H152.33a1,1,0,0,1-1-1V193a1,1,0,0,1,1-1h16.48a1,1,0,0,1,1,1v13.57A1,1,0,0,1,168.81,207.56Zm-15.48-2h14.48V194H153.33Z" fill="#093f68"/><rect x="147.1" y="193.69" width="5.22" height="2" fill="#093f68"/><rect x="147.1" y="198.94" width="5.22" height="2" fill="#093f68"/><rect x="147.1" y="204.19" width="5.22" height="2" fill="#093f68"/><rect x="168.82" y="193.69" width="5.22" height="2" fill="#093f68"/><rect x="168.82" y="198.94" width="5.22" height="2" fill="#093f68"/><rect x="168.82" y="204.19" width="5.22" height="2" fill="#093f68"/><rect x="164.82" y="187.67" width="2" height="4.68" fill="#093f68"/><rect x="159.57" y="187.67" width="2" height="4.68" fill="#093f68"/><rect x="154.32" y="187.67" width="2" height="4.68" fill="#093f68"/><rect x="164.82" y="207.18" width="2" height="4.69" fill="#093f68"/><rect x="159.57" y="207.18" width="2" height="4.69" fill="#093f68"/><rect x="154.32" y="207.18" width="2" height="4.69" fill="#093f68"/><path d="M206.57,132.3v48.64a15.06,15.06,0,0,0,7.44,13v34.62H265.7V193.94c4.11-2.42,22.8-45.69,22.8-45.69l-6.54-7.2-8.81,2-1-12.61Z" fill="#68e1fd" class="target-color"/><path d="M265.7,229.56H214a1,1,0,0,1-1-1V194.5a16.16,16.16,0,0,1-7.44-13.56V132.3a1,1,0,0,1,1-1l65.6-1.83a1,1,0,0,1,1,.93l.89,11.44,7.67-1.77a1,1,0,0,1,1,.3l6.55,7.21a1,1,0,0,1,.17,1.07c-3,7-17.91,41.12-22.72,45.76v34.15A1,1,0,0,1,265.7,229.56Zm-50.69-2H264.7V193.94a1,1,0,0,1,.5-.86c2.75-1.62,14.92-28,22.13-44.63l-5.72-6.3-8.24,1.9a.94.94,0,0,1-.81-.17,1,1,0,0,1-.41-.72l-.9-11.66-63.68,1.77v47.67a14.14,14.14,0,0,0,7,12.14,1,1,0,0,1,.49.86Z" fill="#093f68"/><path d="M259.13,70.52h11.93a0,0,0,0,1,0,0V126a6,6,0,0,1-6,6h0a6,6,0,0,1-6-6V70.52A0,0,0,0,1,259.13,70.52Z" transform="translate(530.19 202.49) rotate(-180)" fill="#68e1fd" class="target-color"/><path d="M271.06,133H259.13a1,1,0,0,1-1-1V76.49a7,7,0,1,1,13.93,0V132A1,1,0,0,1,271.06,133Zm-10.93-2h9.93V76.49a5,5,0,1,0-9.93,0Z" fill="#093f68"/><circle cx="265.1" cy="131.97" r="7.23" fill="#68e1fd" class="target-color"/><path d="M265.1,140.2a8.23,8.23,0,1,1,8.23-8.23A8.24,8.24,0,0,1,265.1,140.2Zm0-14.46a6.23,6.23,0,1,0,6.23,6.23A6.24,6.24,0,0,0,265.1,125.74Z" fill="#093f68"/><path d="M242,62.14H254a0,0,0,0,1,0,0V126a6,6,0,0,1-6,6h0a6,6,0,0,1-6-6V62.14A0,0,0,0,1,242,62.14Z" transform="translate(496 194.12) rotate(-180)" fill="#68e1fd" class="target-color"/><path d="M254,133H242a1,1,0,0,1-1-1V68.11a7,7,0,1,1,13.93,0V132A1,1,0,0,1,254,133ZM243,131H253V68.11a5,5,0,1,0-9.93,0Z" fill="#093f68"/><circle cx="248" cy="131.97" r="7.23" fill="#68e1fd" class="target-color"/><path d="M248,140.2a8.23,8.23,0,1,1,8.23-8.23A8.24,8.24,0,0,1,248,140.2Zm0-14.46a6.23,6.23,0,1,0,6.23,6.23A6.24,6.24,0,0,0,248,125.74Z" fill="#093f68"/><path d="M224.93,67.54h11.93a0,0,0,0,1,0,0V126a6,6,0,0,1-6,6h0a6,6,0,0,1-6-6V67.54A0,0,0,0,1,224.93,67.54Z" transform="translate(461.8 199.51) rotate(-180)" fill="#68e1fd" class="target-color"/><path d="M236.87,133H224.93a1,1,0,0,1-1-1V73.5a7,7,0,0,1,13.94,0V132A1,1,0,0,1,236.87,133Zm-10.94-2h9.94V73.5a5,5,0,0,0-9.94,0Z" fill="#093f68"/><circle cx="230.9" cy="131.97" r="7.23" fill="#68e1fd" class="target-color"/><path d="M230.9,140.2a8.23,8.23,0,1,1,8.23-8.23A8.24,8.24,0,0,1,230.9,140.2Zm0-14.46a6.23,6.23,0,1,0,6.23,6.23A6.24,6.24,0,0,0,230.9,125.74Z" fill="#093f68"/><path d="M207.83,77.87h11.93a0,0,0,0,1,0,0V126a6,6,0,0,1-6,6h0a6,6,0,0,1-6-6V77.87A0,0,0,0,1,207.83,77.87Z" transform="translate(427.6 209.84) rotate(180)" fill="#68e1fd" class="target-color"/><path d="M219.77,133H207.83a1,1,0,0,1-1-1V83.83a7,7,0,0,1,13.94,0V132A1,1,0,0,1,219.77,133Zm-10.94-2h9.94V83.83a5,5,0,0,0-9.94,0Z" fill="#093f68"/><circle cx="213.8" cy="131.97" r="7.23" fill="#68e1fd" class="target-color"/><path d="M213.8,140.2A8.23,8.23,0,1,1,222,132,8.24,8.24,0,0,1,213.8,140.2Zm0-14.46A6.23,6.23,0,1,0,220,132,6.24,6.24,0,0,0,213.8,125.74Z" fill="#093f68"/><path d="M270.82,109.78H259.13a1,1,0,0,1,0-2h11.69a1,1,0,0,1,0,2Z" fill="#093f68"/><path d="M270.82,90.36H259.13a1,1,0,0,1,0-2h11.69a1,1,0,0,1,0,2Z" fill="#093f68"/><path d="M236.74,112.69H225.06a1,1,0,0,1,0-2h11.68a1,1,0,0,1,0,2Z" fill="#093f68"/><path d="M236.74,90.36H225.06a1,1,0,0,1,0-2h11.68a1,1,0,0,1,0,2Z" fill="#093f68"/><path d="M219.64,117.08H208a1,1,0,0,1,0-2h11.68a1,1,0,0,1,0,2Z" fill="#093f68"/><path d="M219.64,94.75H208a1,1,0,0,1,0-2h11.68a1,1,0,0,1,0,2Z" fill="#093f68"/><path d="M253.84,109.78H242.16a1,1,0,0,1,0-2h11.68a1,1,0,0,1,0,2Z" fill="#093f68"/><path d="M253.84,82.64H242.16a1,1,0,0,1,0-2h11.68a1,1,0,0,1,0,2Z" fill="#093f68"/><path d="M297.08,112.09h0a6.9,6.9,0,0,0-9.15,3.38l-12.42,26.38L288,147.62l12.41-26.38A6.89,6.89,0,0,0,297.08,112.09Z" fill="#68e1fd" class="target-color"/><path d="M288,148.62a1,1,0,0,1-.41-.09l-12.52-5.77a1,1,0,0,1-.52-.57,1,1,0,0,1,0-.76L287,115a7.89,7.89,0,0,1,14.33,6.62l-12.42,26.39A1,1,0,0,1,288,148.62Zm-11.18-7.25,10.7,4.93,12-25.49a5.9,5.9,0,0,0-2.89-7.81h0a5.88,5.88,0,0,0-7.82,2.89Z" fill="#093f68"/><circle cx="281.77" cy="144.74" r="8.35" fill="#68e1fd" class="target-color"/><path d="M281.76,154.09a9.36,9.36,0,0,1-8.48-13.27h0a9.35,9.35,0,1,1,8.48,13.27Zm0-16.71a7.37,7.37,0,0,0-6.68,4.28h0a7.35,7.35,0,1,0,13.57.53,7.37,7.37,0,0,0-6.89-4.81Zm-7.59,3.86h0Z" fill="#093f68"/><path d="M295.66,132.42a1,1,0,0,1-.37-.07l-12.82-5.13a1,1,0,0,1-.56-1.3,1,1,0,0,1,1.3-.56L296,130.49a1,1,0,0,1-.37,1.93Z" fill="#093f68"/><line x1="278.28" y1="152.32" x2="257.87" y2="167.52" fill="#68e1fd" class="target-color"/><path d="M257.87,168.52a1,1,0,0,1-.8-.41,1,1,0,0,1,.2-1.4l20.41-15.19a1,1,0,0,1,1.4.21,1,1,0,0,1-.21,1.39l-20.4,15.2A1,1,0,0,1,257.87,168.52Z" fill="#093f68"/><path d="M222.21,169.31h0a1,1,0,0,1-.95-.72l-8.41-29.11a1,1,0,1,1,1.92-.56l7.46,25.85,7.72-25.86a1,1,0,0,1,1-.71h0a1,1,0,0,1,1,.72l7.59,25.85L247,138.92a1,1,0,0,1,1-.72h0a1,1,0,0,1,1,.71l7.71,25.86,7.47-25.85a1,1,0,1,1,1.92.56l-8.41,29.11a1,1,0,0,1-.95.72h0a1,1,0,0,1-1-.71L248,142.72l-7.6,25.88a1,1,0,0,1-1,.71,1,1,0,0,1-1-.71l-7.6-25.88-7.73,25.88A1,1,0,0,1,222.21,169.31Z" fill="#093f68"/><path d="M252,229.56h-.08a1,1,0,0,1-.92-1.07l4.72-60.24a1,1,0,0,1,1.08-.92,1,1,0,0,1,.92,1.07L253,228.63A1,1,0,0,1,252,229.56Z" fill="#093f68"/><path d="M239.45,229.56a1,1,0,0,1-1-1V168.31a1,1,0,0,1,2,0v60.25A1,1,0,0,1,239.45,229.56Z" fill="#093f68"/><path d="M226,229.56a1,1,0,0,1-1-.94l-3.77-60.24a1,1,0,0,1,.93-1.06,1,1,0,0,1,1.06.93L227,228.49a1,1,0,0,1-.93,1.06Z" fill="#093f68"/><rect x="209.43" y="228.56" width="61.26" height="9.3" transform="translate(480.11 466.41) rotate(-180)" fill="#68e1fd" class="target-color"/><path d="M270.69,238.86H209.43a1,1,0,0,1-1-1v-9.3a1,1,0,0,1,1-1h61.26a1,1,0,0,1,1,1v9.3A1,1,0,0,1,270.69,238.86Zm-60.26-2h59.26v-7.3H210.43Z" fill="#093f68"/><rect x="221.23" y="184.76" width="36.41" height="29.99" transform="translate(478.86 399.51) rotate(-180)" fill="#68e1fd" class="target-color"/><path d="M257.63,215.75h-36.4a1,1,0,0,1-1-1v-30a1,1,0,0,1,1-1h36.4a1,1,0,0,1,1,1v30A1,1,0,0,1,257.63,215.75Zm-35.4-2h34.4v-28h-34.4Z" fill="#093f68"/><rect x="231.19" y="192.99" width="16.48" height="13.57" transform="translate(478.86 399.54) rotate(-180)" fill="#093f68"/><path d="M247.67,207.56H231.19a1,1,0,0,1-1-1V193a1,1,0,0,1,1-1h16.48a1,1,0,0,1,1,1v13.57A1,1,0,0,1,247.67,207.56Zm-15.48-2h14.48V194H232.19Z" fill="#093f68"/><rect x="247.68" y="193.69" width="5.22" height="2" fill="#093f68"/><rect x="247.68" y="198.94" width="5.22" height="2" fill="#093f68"/><rect x="247.68" y="204.19" width="5.22" height="2" fill="#093f68"/><rect x="225.96" y="193.69" width="5.22" height="2" fill="#093f68"/><rect x="225.96" y="198.94" width="5.22" height="2" fill="#093f68"/><rect x="225.96" y="204.19" width="5.22" height="2" fill="#093f68"/><rect x="233.18" y="187.67" width="2" height="4.68" fill="#093f68"/><rect x="238.43" y="187.67" width="2" height="4.68" fill="#093f68"/><rect x="243.68" y="187.67" width="2" height="4.68" fill="#093f68"/><rect x="233.18" y="207.18" width="2" height="4.69" fill="#093f68"/><rect x="238.43" y="207.18" width="2" height="4.69" fill="#093f68"/><rect x="243.68" y="207.18" width="2" height="4.69" fill="#093f68"/></svg>